<svg width="16" height="16" xmlns="http://www.w3.org/2000/svg" class="bi bi-arrows-collapse" fill="currentColor">

 <g>
  <title>Layer 1</title>
  <path id="svg_1" d="m1,8a0.5,0.5 0 0 1 0.5,-0.5l13,0a0.5,0.5 0 0 1 0,1l-13,0a0.5,0.5 0 0 1 -0.5,-0.5zm7,-8a0.5,0.5 0 0 1 0.5,0.5l0,3.793l1.146,-1.147a0.5,0.5 0 0 1 0.708,0.708l-2,2a0.5,0.5 0 0 1 -0.708,0l-2,-2a0.5,0.5 0 1 1 0.708,-0.708l1.146,1.147l0,-3.793a0.5,0.5 0 0 1 0.5,-0.5zm-0.5,11.707l-1.146,1.147a0.5,0.5 0 0 1 -0.708,-0.708l2,-2a0.5,0.5 0 0 1 0.708,0l2,2a0.5,0.5 0 0 1 -0.708,0.708l-1.146,-1.147l0,3.793a0.5,0.5 0 0 1 -1,0l0,-3.793z" fill-rule="evenodd" stroke="white"/>
 </g>
</svg>