<?xml version="1.0" standalone="no"?><!DOCTYPE svg PUBLIC "-//W3C//DTD SVG 1.1//EN" "http://www.w3.org/Graphics/SVG/1.1/DTD/svg11.dtd"><svg t="1686893702853" class="icon" viewBox="0 0 1024 1024" version="1.1" xmlns="http://www.w3.org/2000/svg" p-id="1503" xmlns:xlink="http://www.w3.org/1999/xlink" width="200" height="200"><path d="M441.47 537.05h186.18v59.22H441.47zM441.47 671.04h280.56v59.22H441.47z" p-id="1504"></path><path d="M685.92 217.95c-0.62-0.65-1.27-1.25-1.93-1.84l-6.85-7.18h-9.52a29.56 29.56 0 0 0-6.31 0h-59.93l1.81-1.73-86.3-90.62H221.06a60.21 60.21 0 0 0-60.15 60.15V742.1a60.21 60.21 0 0 0 60.15 60.15h100.11v32.2a60.21 60.21 0 0 0 60.15 60.15h440.82a60.21 60.21 0 0 0 60.15-60.15V424L746.8 282z m93.95 184.69l-92.81-4.54a0.85 0.85 0 0 1-0.6-0.93l4.25-88.22 12.61 13.22zM221.06 743a1 1 0 0 1-0.93-0.93V176.73a1 1 0 0 1 0.93-0.93h270.45l31.55 33.13H381.32a60.21 60.21 0 0 0-60.15 60.15V743z m601.09 92.35H381.32a1 1 0 0 1-0.93-0.93V269.08a1 1 0 0 1 0.93-0.93h252.07l-6.08 126.27v0.12c-1.46 33.12 24.17 61.25 57 62.71L823.07 464v370.45a1 1 0 0 1-0.93 0.93z" p-id="1505"></path></svg>