<?xml version="1.0" standalone="no"?><!DOCTYPE svg PUBLIC "-//W3C//DTD SVG 1.1//EN" "http://www.w3.org/Graphics/SVG/1.1/DTD/svg11.dtd"><svg t="1678849756383" class="icon" viewBox="0 0 1024 1024" version="1.1" xmlns="http://www.w3.org/2000/svg" p-id="10152" xmlns:xlink="http://www.w3.org/1999/xlink" width="480" height="480"><path d="M511.8 959.6c-119.5 0-231.9-46.6-316.5-131.1-84.5-84.6-131.1-197-131.1-316.5s46.6-231.9 131.1-316.5c22.9-22.9 60-22.9 82.8 0 22.9 22.9 22.9 60 0 82.8-62.4 62.4-96.8 145.4-96.8 233.6 0 88.3 34.4 171.2 96.8 233.6 62.4 62.4 145.4 96.8 233.6 96.8 88.3 0 171.2-34.4 233.6-96.8s96.8-145.4 96.8-233.6c0-88.3-34.4-171.2-96.8-233.6-22.9-22.9-22.9-60 0-82.8 22.9-22.9 60-22.9 82.8 0C912.6 280 959.2 392.4 959.2 512s-46.6 231.9-131.1 316.5C743.7 913 631.3 959.6 511.8 959.6z" fill="#000000" p-id="10153"></path><path d="M511.8 500.1c-32.3 0-58.6-26.2-58.6-58.6v-319c0-32.3 26.2-58.6 58.6-58.6s58.6 26.2 58.6 58.6v319c-0.1 32.4-26.3 58.6-58.6 58.6z" fill="#000000" p-id="10154"></path></svg>