<?xml version="1.0" standalone="no"?><!DOCTYPE svg PUBLIC "-//W3C//DTD SVG 1.1//EN" "http://www.w3.org/Graphics/SVG/1.1/DTD/svg11.dtd"><svg t="1678851982603" class="icon" viewBox="0 0 1024 1024" version="1.1" xmlns="http://www.w3.org/2000/svg" p-id="21684" xmlns:xlink="http://www.w3.org/1999/xlink" width="480" height="480"><path d="M676.48 72.96l209.92 211.2 9.6 23.04v620.8l-32 32h-704l-32-32v-832l32-32h494.08l22.4 8.96zM192 128v768h640V320l-192-192H192z m93.44 259.328c0 82.368 29.312 123.52 87.936 123.52 29.248 0 51.648-11.072 67.2-33.28 15.744-22.272 23.552-54.208 23.552-95.936C464.128 297.856 435.52 256 378.24 256c-30.144 0-53.184 11.2-69.12 33.664-15.808 22.4-23.68 54.912-23.68 97.664z m55.168-1.408c0-59.008 11.712-88.512 35.2-88.512 22.016 0 33.024 28.672 33.024 85.952s-11.264 85.952-33.728 85.952c-23.04 0-34.56-27.776-34.56-83.392z m203.968 120.704h155.84v-43.008h-50.688V256l-106.56 21.504v43.968l52.48-11.328v153.472h-51.072v43.008z m-85.568 320H303.104v-43.008h51.072V630.144l-52.48 11.328v-43.968L408.32 576v207.616h50.688v42.944z m66.24-123.584c0 82.368 29.312 123.52 88 123.52 29.248 0 51.648-11.072 67.2-33.28 15.68-22.272 23.552-54.208 23.552-95.936 0-83.776-28.672-125.632-85.952-125.632-30.08 0-53.12 11.2-69.12 33.664-15.744 22.4-23.68 54.912-23.68 97.664z m55.168-1.408c0-59.008 11.776-88.512 35.2-88.512 22.016 0 33.024 28.672 33.024 85.952s-11.2 85.952-33.664 85.952c-23.04 0-34.56-27.776-34.56-83.392z" fill="#FFFFFF" p-id="21685"></path></svg>