<?xml version="1.0" standalone="no"?><!DOCTYPE svg PUBLIC "-//W3C//DTD SVG 1.1//EN" "http://www.w3.org/Graphics/SVG/1.1/DTD/svg11.dtd"><svg t="1681125329283" class="icon" viewBox="0 0 1025 1024" version="1.1" xmlns="http://www.w3.org/2000/svg" p-id="8403" xmlns:xlink="http://www.w3.org/1999/xlink" width="200.1953125" height="200"><path d="M704.108798 0.02048c-176.738865 0-319.9936 143.295694-319.9936 319.9936 0 41.123018 8.601428 80.034239 22.814264 116.119278l-388.764065 388.723106c-11.222816 11.263775-18.165397 21.954121-18.165397 39.136497l0 96.00832c0 34.241875 29.736365 63.99872 63.99872 63.99872l96.00832 0c17.141417 0 27.9956-6.881142 39.238895-18.042519l45.915242-45.956201 74.97578 0c35.327293 0 63.99872-28.671427 63.99872-63.99872l0-63.99872 63.99872 0c35.327293 0 63.99872-28.671427 63.99872-63.99872l0-75.01674 75.815444-75.876882c36.125997 14.233315 75.01674 22.875702 116.180716 22.875702 176.677426 0 319.9936-143.295694 319.9936-319.9936s-143.316174-319.9936-319.9936-319.9936zM704.108798 576.00896c-47.369293 0-91.257055-13.762285-129.308134-36.228395l-11.01802 10.97706-96.950381 96.99134c-12.00104 12.00104-18.759305 28.261835-18.759305 45.239415l0 75.01674-63.99872 0c-35.327293 0-63.99872 28.630467-63.99872 63.99872l0 63.99872-74.934821 0c-16.957101 0-33.238375 6.758265-45.239415 18.759305l-45.382772 45.382772-90.437871-0.122878-0.102398-91.195616 373.281494-372.605668c0 0 0 0.040959 0.040959 0.061439l47.00066-47.00066c-22.466111-38.051079-36.228395-81.918362-36.228395-129.287654 0-141.370613 114.644747-255.99488 255.99488-255.99488s255.99488 114.624268 255.99488 255.99488-114.583308 256.035839-255.953921 256.035839zM890.227315 263.654247c-35.880242-49.99068-79.542729-93.591728-129.758685-129.717726-8.150877-5.918602-18.718346-7.393132-28.220876-4.054959-44.440711 15.646407-74.873383 46.038119-90.437871 90.49931-1.187816 3.317694-1.761245 6.778744-1.761245 10.198836 0 6.369153 1.98652 12.676866 5.816204 18.02204 36.00312 50.052119 79.624648 93.694126 129.697246 129.697246 8.191836 5.877642 18.697866 7.393132 28.200396 4.095918 44.50215-15.544009 74.934821-46.01764 90.560749-90.49931 1.187816-3.317694 1.761245-6.778744 1.761245-10.198836-0.040959-6.369153-2.047959-12.676866-5.857163-18.02204zM794.218996 352.330873c-47.287374-34.0166-88.471831-75.201056-122.242675-121.382532 12.390152-35.286334 35.552569-58.469231 69.814924-71.064179 47.328333 34.078038 88.451351 75.160097 122.099318 121.955961-12.51303 35.040579-35.614008 58.080118-69.692046 70.49075z" fill="#444444" p-id="8404"></path></svg>