<?xml version="1.0" standalone="no"?><!DOCTYPE svg PUBLIC "-//W3C//DTD SVG 1.1//EN" "http://www.w3.org/Graphics/SVG/1.1/DTD/svg11.dtd"><svg t="1694414187652" class="icon" viewBox="0 0 1024 1024" version="1.1" xmlns="http://www.w3.org/2000/svg" p-id="8534" xmlns:xlink="http://www.w3.org/1999/xlink" width="480" height="480"><path d="M721.92 742.4c-71.68-34.816-122.88-96.256-148.48-166.912-10.24-26.624-16.384-54.272-19.456-80.896v-45.056h139.264c11.264 0 17.408-12.288 10.24-22.528L522.24 209.92c-6.144-8.192-20.48-8.192-25.6 0L319.488 427.008c-6.144 8.192 0 22.528 10.24 22.528h140.288v45.056c-3.072 27.648-10.24 56.32-19.456 80.896-26.624 69.632-76.8 132.096-148.48 166.912-10.24 4.096-14.336 16.384-10.24 26.624l16.384 38.912c5.12 11.264 16.384 14.336 27.648 8.192 77.824-36.864 138.24-96.256 176.128-165.888 37.888 70.656 98.304 129.024 177.152 165.888 11.264 5.12 22.528 4.096 27.648-8.192l16.384-38.912c4.096-10.24-1.024-22.528-11.264-26.624z" fill="#ffffff" p-id="8535"></path></svg>