<svg width="700" height="700" xmlns="http://www.w3.org/2000/svg" p-id="976" version="1.1" class="icon" t="1678849333996">

 <g>
  <title>Layer 1</title>
  <path id="svg_1" p-id="977" fill="#ffffff" d="m69.33122,267.84002l0,-119.04c0,-42.3936 34.2016,-76.8 76.4416,-76.8l107.8272,0c29.5936,0 56.5248,17.152 69.12,44.032l14.8992,31.6416a25.4976,25.4976 0 0 0 23.04,14.6944l192.8192,0c42.1888,0 76.4416,34.3552 76.4416,76.8l0,28.672a76.8,76.8 0 0 1 50.9952,88.064l-43.3152,217.6a76.544,76.544 0 0 1 -74.9568,61.696l-426.0864,0a76.544,76.544 0 0 1 -74.9568,-61.7472l-43.3152,-217.6a76.8512,76.8512 0 0 1 51.0464,-88.0128zm509.5936,-3.84l0,-24.832c0,-14.1312 -11.4176,-25.6 -25.4464,-25.6l-192.8192,0a76.4416,76.4416 0 0 1 -69.12,-44.032l-14.848,-31.6928a25.4976,25.4976 0 0 0 -23.0912,-14.6432l-107.8784,0a25.5488,25.5488 0 0 0 -25.4976,25.6l0,115.2l458.6496,0l0.0512,0zm-485.6832,51.2a25.6,25.6 0 0 0 -24.9856,30.6176l43.3152,217.6c2.4064,11.9808 12.8512,20.5824 24.9856,20.5824l426.0864,0a25.4976,25.4976 0 0 0 24.9856,-20.5824l43.3152,-217.6a25.7024,25.7024 0 0 0 -24.9856,-30.6176l-512.7168,0z"/>
 </g>
</svg>