<?xml version="1.0" standalone="no"?><!DOCTYPE svg PUBLIC "-//W3C//DTD SVG 1.1//EN" "http://www.w3.org/Graphics/SVG/1.1/DTD/svg11.dtd"><svg t="1686894027155" class="icon" viewBox="0 0 1024 1024" version="1.1" xmlns="http://www.w3.org/2000/svg" p-id="5160" xmlns:xlink="http://www.w3.org/1999/xlink" width="200" height="200"><path d="M631.156 221.154h-95.679v-47.84c0-26.314-21.535-47.84-47.84-47.84h-95.679c-26.302 0-47.84 21.525-47.84 47.84v47.84h-95.679v108.982h382.715v-108.982zM487.639 221.154h-95.679v-47.746c0.024-0.024 0.047-0.046 0.094-0.093h95.515c0.024 0.024 0.070 0.047 0.094 0.093l-0.025 47.746zM726.835 406.884v-161.81c0-13.152-10.766-23.92-23.92-23.92h-47.84v47.84h23.92v137.891h-273.99v371.716h-204.404v-509.606h23.92v-47.84h-47.84c-13.152 0-23.92 10.768-23.92 23.92v557.446c0 13.152 10.768 23.92 23.92 23.92h228.324v64.468h326.179l139.17-132.006v-352.017h-143.519zM731.952 823.26v-62.568h70.754l-70.754 62.568zM822.515 712.852h-138.402v130.216h-231.267v-388.345h369.669v258.129z" p-id="5161" fill="#ffffff"></path><path d="M515.267 557.31h245.593v48.095h-245.593v-48.095zM515.267 692.386h124.528v48.095h-124.528v-48.095z" p-id="5162" fill="#ffffff"></path></svg>