<?xml version="1.0" standalone="no"?><!DOCTYPE svg PUBLIC "-//W3C//DTD SVG 1.1//EN" "http://www.w3.org/Graphics/SVG/1.1/DTD/svg11.dtd"><svg t="1678850663919" class="icon" viewBox="0 0 1024 1024" version="1.1" xmlns="http://www.w3.org/2000/svg" p-id="18916" xmlns:xlink="http://www.w3.org/1999/xlink" width="480" height="480"><path d="M1020.464128 404.48L1005.104128 15.36l-102.4 5.12 5.12 163.84C800.304128 56.32 641.584128-15.36 467.504128 5.12 329.264128 20.48 206.384128 87.04 119.344128 189.44 32.304128 296.96-8.655872 430.08 6.704128 568.32c15.36 133.12 81.92 256 189.44 343.04 92.16 76.8 204.8 112.64 322.56 112.64 15.36 0 35.84 0 51.2-5.12l-10.24-102.4c-107.52 10.24-215.04-20.48-302.08-92.16C175.664128 762.88 119.344128 665.6 109.104128 558.08c-10.24-112.64 20.48-215.04 92.16-302.08C267.824128 168.96 365.104128 117.76 477.744128 107.52c168.96-20.48 327.68 71.68 404.48 220.16L621.104128 384l20.48 102.4 312.32-66.56 66.56-15.36z" fill="#000000" p-id="18917"></path></svg>