<?xml version="1.0" standalone="no"?><!DOCTYPE svg PUBLIC "-//W3C//DTD SVG 1.1//EN" "http://www.w3.org/Graphics/SVG/1.1/DTD/svg11.dtd"><svg t="1678850461018" class="icon" viewBox="0 0 1024 1024" version="1.1" xmlns="http://www.w3.org/2000/svg" p-id="17717" xmlns:xlink="http://www.w3.org/1999/xlink" width="480" height="480"><path d="M160.731429 464.530286c74.715429 0 86.710857-30.774857 119.862857-30.774857 7.588571 0 13.184 1.590857 23.186285 6.4l67.913143 35.949714c7.990857 4.388571 14.774857 8.393143 20.370286 11.995428h2.395429c9.197714-33.572571 23.972571-55.149714 49.554285-71.131428v-2.377143l-91.099428-48.347429c-28.361143-15.177143-30.774857-27.574857-30.774857-63.140571 0-90.294857-71.899429-162.194286-161.408-162.194286C71.643429 140.909714 0.128 213.211429 0.128 303.085714c0 89.508571 71.515429 161.426286 160.603429 161.426286z m0-65.133715c-52.333714 0-95.085714-43.556571-95.085715-96.292571 0-53.942857 42.752-96.676571 95.085715-96.676571 53.942857 0 96.292571 42.752 96.292571 96.676571a96.073143 96.073143 0 0 1-96.292571 96.292571z m0 519.789715c89.508571 0 161.408-71.917714 161.408-162.194286 0-33.170286 1.609143-46.354286 25.965714-59.538286L1024.128 338.267429c-16.384-59.922286-81.499429-70.308571-180.992-34.742858l-341.211429 122.642286c-47.926857 17.188571-68.315429 40.758857-81.499428 85.101714l-7.972572 29.165715c-5.997714 20.772571-15.177143 31.158857-46.354285 47.140571l-62.336 32.768c-9.984 5.193143-15.579429 6.784-23.168 6.784-33.152 0-45.147429-31.158857-119.862857-31.158857C71.643429 595.968 0.128 667.885714 0.128 756.973714c0 89.892571 71.515429 162.212571 160.603429 162.212572z m350.390857-377.161143c-17.974857 0-33.554286-14.774857-33.554286-33.152 0-19.181714 15.579429-33.572571 33.554286-33.572572 18.377143 0 33.956571 14.390857 33.956571 33.572572 0 18.377143-15.579429 33.152-33.956571 33.152z m332.013714 215.753143c100.278857 37.156571 164.608 25.161143 180.992-36.352l-325.211429-171.812572L533.888 636.342857v4.790857zM160.731429 853.668571c-52.333714 0-95.085714-42.752-95.085715-96.694857 0-52.736 42.752-95.890286 95.085715-95.890285 53.942857 0 96.292571 43.154286 96.292571 95.890285 0 53.942857-42.349714 96.694857-96.292571 96.694857z" p-id="17718" fill="#ffffff"></path></svg>